<svg width="322" height="191" viewBox="0 0 322 191" fill="none" xmlns="http://www.w3.org/2000/svg">
<path d="M36.1233 154.793H2V189H36.1233V119.825L55 108.423M55 108.423V177.598M55 108.423H89.1233M55 177.598L40.4795 189H89.1233C92.0274 185.199 98.8521 177.598 102.918 177.598H89.1233M55 177.598H89.1233M89.1233 108.423V169.236L124.699 154.793M89.1233 108.423V73.4553L124.699 55.2114M124.699 154.793H264.822M124.699 154.793V55.2114M264.822 154.793L176.247 177.598H89.1233M264.822 154.793L320 123.626M124.699 55.2114H153.014M153.014 55.2114V146.431L200.205 123.626M153.014 55.2114V21.0041L200.205 2M200.205 123.626H320M200.205 123.626V2M320 123.626V2H200.205" stroke="url(#paint0_radial_0_2286)" stroke-width="3.1221"/>
<defs>
<radialGradient id="paint0_radial_0_2286" cx="0" cy="0" r="1" gradientUnits="userSpaceOnUse" gradientTransform="translate(161 95.5) rotate(90) scale(93.5 159)">
<stop stop-color="#001AFF"/>
<stop offset="1" stop-color="white"/>
</radialGradient>
</defs>
</svg>
