<svg width="1077" height="139" viewBox="0 0 1077 139" fill="none" xmlns="http://www.w3.org/2000/svg">
<path d="M28.8598 39.7986H5.02863L3.54289 41.2844L3.60232 121.573L5.14748 123.059H28.8598V123L57.0887 94.7707L57.0292 65.0561H57.0887L28.8598 39.7986ZM60.0601 96.2564L30.3455 125.971H0.630859V36.8272H30.3455L60.0601 63.5703V96.2564ZM74.9174 39.7986V36.8272H134.347V39.7986H107.604L106.118 41.2844V121.514L107.604 123H134.347V125.971H74.9174V123H101.661L103.146 121.514V41.2844L101.661 39.7986H74.9174ZM208.633 125.971H149.204V36.8272H208.633V66.5418H205.662V41.2844L204.176 39.7986H153.602L152.116 41.2844V121.514L153.661 123H205.662V99.2279L204.176 97.7422H177.433V94.7707H208.633V125.971ZM223.491 39.7986V36.8272H282.92V39.7986H256.177L254.691 41.2844V121.514L256.177 123H282.92V125.971H223.491V123H250.234L251.72 121.514V41.2844L250.234 39.7986H223.491ZM297.777 39.7986V36.8272H357.206V39.7986H330.463L328.978 41.2844V125.971H326.006V41.2844L324.52 39.7986H297.777ZM395.717 93.285V65.0561L368.973 39.7986L342.23 65.0561V93.285L343.716 94.7707H394.231L395.717 93.285ZM343.716 97.7422L342.23 99.2279V125.971H339.259V63.5703L367.488 36.8272H370.459L398.688 63.5703V125.971H395.717V99.2279L394.231 97.7422H343.716ZM472.975 123V125.971H413.545V36.8272H416.457V121.514L418.003 123H472.975ZM621.548 125.971H562.119V36.8272H621.548V66.5418H618.576V41.2844L617.091 39.7986H566.516L565.031 41.2844V121.514L566.576 123H618.576V99.2279L617.091 97.7422H590.348V94.7707H621.548V125.971ZM692.863 93.285V65.0561L666.12 39.7986L639.377 65.0561V93.285L640.862 94.7707H691.377L692.863 93.285ZM640.862 97.7422L639.377 99.2279V125.971H636.405V63.5703L664.634 36.8272H667.606L695.834 63.5703V125.971H692.863V99.2279L691.377 97.7422H640.862ZM715.149 39.7986L713.663 41.2844V78.4277L715.208 79.9134H765.664L767.15 78.3682V41.2844L765.723 39.7986H715.149ZM710.692 36.8272H770.121V82.8848H716.159L770.121 123V125.971H768.635L713.663 85.0837V125.971H710.692V36.8272ZM813.207 39.7986H789.376L787.89 41.2844L787.95 121.573L789.495 123.059H813.207V123L841.436 94.7707L841.377 65.0561H841.436L813.207 39.7986ZM844.408 96.2564L814.693 125.971H784.978V36.8272H814.693L844.408 63.5703V96.2564ZM859.265 125.971V36.8272H918.694V39.7986H863.722L862.236 41.2844V78.4277L863.782 79.9134H905.323V82.8848H863.722L862.236 84.3706V121.514L863.722 123H918.694V125.971H859.265ZM936.523 41.2844V125.971H933.552V36.8272H938.009L990.009 121.514V36.8272H992.981V125.971H988.524L936.523 41.2844Z" fill="white"/>
<circle cx="171.616" cy="95.565" r="8.51347" fill="#2400FF" stroke="white" stroke-width="1.89188"/>
<circle cx="585.939" cy="95.565" r="8.51347" fill="#2400FF" stroke="white" stroke-width="1.89188"/>
<circle cx="991.347" cy="39.4392" r="8.51347" fill="#0A0A0C" stroke="white" stroke-width="1.89188"/>
</svg>
